<?xml version="1.0" encoding="UTF-8"?>
<svg width="36px" height="35px" viewBox="0 0 36 35" version="1.1" xmlns="http://www.w3.org/2000/svg" xmlns:xlink="http://www.w3.org/1999/xlink">
    <!-- Generator: Sketch 42 (36781) - http://www.bohemiancoding.com/sketch -->
    <title>Group</title>
    <desc>Created with Sketch.</desc>
    <defs></defs>
    <g id="Wireframe" stroke="none" stroke-width="1" fill="none" fill-rule="evenodd">
        <g id="Mobile-Portrait" transform="translate(-259.000000, -1794.000000)" fill="#BDCCD3">
            <g id="Group" transform="translate(259.000000, 1794.000000)">
                <g id="Shape">
                    <path d="M7.2,5.63002231 L7.2,1.54285714 C7.2,0.832776737 6.62436612,0.257142857 5.91428571,0.257142857 C5.20420531,0.257142857 4.62857143,0.832776737 4.62857143,1.54285714 L4.62857143,5.74603797 M4.62857143,14.4838727 L4.62857143,33.4285714 L4.62857143,33.4285714 C4.62857143,34.1386518 5.20420531,34.7142857 5.91428571,34.7142857 C6.62436612,34.7142857 7.2,34.1386518 7.2,33.4285714 L7.2,14.4487165"></path>
                    <path d="M11.8051948,10.0125 C11.8051948,6.82573289 9.21979425,4.24285714 6.03116882,4.24285714 C2.84254339,4.24285714 0.257142857,6.82573289 0.257142857,10.0125 C0.257142857,13.1992671 2.84254339,15.7821429 6.03116882,15.7821429 C9.21979425,15.7821429 11.8051948,13.1992671 11.8051948,10.0125 L11.8051948,10.0125 Z M2.82857143,10.0125 C2.82857143,8.24645638 4.26214209,6.81428571 6.03116882,6.81428571 C7.8001956,6.81428571 9.23376626,8.24645638 9.23376626,10.0125 C9.23376626,11.7785436 7.8001956,13.2107143 6.03116882,13.2107143 C4.26214209,13.2107143 2.82857143,11.7785436 2.82857143,10.0125 L2.82857143,10.0125 Z"></path>
                    <path d="M31.3714286,5.63002231 L31.3714286,1.54285714 C31.3714286,0.832776737 30.7957947,0.257142857 30.0857143,0.257142857 C29.3756339,0.257142857 28.8,0.832776737 28.8,1.54285714 L28.8,5.74603797 M28.8,14.4838727 L28.8,33.4285714 L28.8,33.4285714 C28.8,34.1386518 29.3756339,34.7142857 30.0857143,34.7142857 C30.7957947,34.7142857 31.3714286,34.1386518 31.3714286,33.4285714 L31.3714286,14.4487165"></path>
                    <path d="M35.9766234,10.0125 C35.9766234,6.82573289 33.3912228,4.24285714 30.2025974,4.24285714 C27.013972,4.24285714 24.4285714,6.82573289 24.4285714,10.0125 C24.4285714,13.1992671 27.013972,15.7821429 30.2025974,15.7821429 C33.3912228,15.7821429 35.9766234,13.1992671 35.9766234,10.0125 L35.9766234,10.0125 Z M27,10.0125 C27,8.24645638 28.4335707,6.81428571 30.2025974,6.81428571 C31.9716242,6.81428571 33.4051948,8.24645638 33.4051948,10.0125 C33.4051948,11.7785436 31.9716242,13.2107143 30.2025974,13.2107143 C28.4335707,13.2107143 27,11.7785436 27,10.0125 L27,10.0125 Z"></path>
                    <path d="M19.5428571,5.63002231 L19.5428571,1.54285714 C19.5428571,0.832776737 18.9672233,0.257142857 18.2571429,0.257142857 C17.5470625,0.257142857 16.9714286,0.832776737 16.9714286,1.54285714 L16.9714286,5.74603797 M16.9714286,14.4838727 L16.9714286,33.4285714 L16.9714286,33.4285714 C16.9714286,34.1386518 17.5470625,34.7142857 18.2571429,34.7142857 C18.9672233,34.7142857 19.5428571,34.1386518 19.5428571,33.4285714 L19.5428571,14.4487165" transform="translate(18.257143, 17.485714) rotate(180.000000) translate(-18.257143, -17.485714) "></path>
                    <path d="M23.9142855,24.9589286 C23.9142855,21.7721615 21.3288849,19.1892857 18.1402595,19.1892857 C14.9516341,19.1892857 12.3662335,21.7721615 12.3662335,24.9589286 C12.3662335,28.1456957 14.9516341,30.7285714 18.1402595,30.7285714 C21.3288849,30.7285714 23.9142855,28.1456957 23.9142855,24.9589286 L23.9142855,24.9589286 Z M14.9376621,24.9589286 C14.9376621,23.192885 16.3712327,21.7607143 18.1402595,21.7607143 C19.9092862,21.7607143 21.3428569,23.192885 21.3428569,24.9589286 C21.3428569,26.7249722 19.9092862,28.1571429 18.1402595,28.1571429 C16.3712327,28.1571429 14.9376621,26.7249722 14.9376621,24.9589286 L14.9376621,24.9589286 Z" transform="translate(18.140259, 24.958929) rotate(180.000000) translate(-18.140259, -24.958929) "></path>
                </g>
            </g>
        </g>
    </g>
</svg>