<?xml version="1.0" encoding="UTF-8"?>
<svg width="194px" height="70px" viewBox="0 0 194 70" version="1.1" xmlns="http://www.w3.org/2000/svg" xmlns:xlink="http://www.w3.org/1999/xlink">
    <!-- Generator: Sketch 42 (36781) - http://www.bohemiancoding.com/sketch -->
    <title>logo</title>
    <desc>Created with Sketch.</desc>
    <defs></defs>
    <g id="Wireframe" stroke="none" stroke-width="1" fill="none" fill-rule="evenodd">
        <g id="Desktop-HD" transform="translate(-210.000000, -24.000000)" fill="#1FB9F5">
            <g id="logo" transform="translate(210.000000, 24.000000)">
                <path d="M32.135,0 L30.31,1.937 L30.31,5.605 L34.417,7.806 L28.177,5.147 L26.658,15.508 L41.721,23.21 L24.375,15.508 L10.773,26.787 L0,49.434 L4.565,60.346 L26.11,69.882 L42.177,64.013 L52.219,42.008 L46.103,25.87 L45.099,25.595 L38.982,9.64 L29.488,14.408 L37.431,9.548 L34.326,2.397 L31.952,3.955 L33.687,2.397 L32.135,0 Z M15.976,43.658 L29.488,32.105 L44.369,26.603 L30.583,33.847 L41.447,61.721 L34.691,48.151 L6.573,58.971 L19.537,52.277 L16.524,44.942 L1.735,48.793 L15.976,43.658 Z" id="Page-1"></path>
                <text id="CHEPPERS" font-family="Novecentosanswide-DemiBold, Novecento sans wide" font-size="24" font-style="expanded" font-weight="500">
                    <tspan x="71" y="46">CHEPPERS</tspan>
                </text>
            </g>
        </g>
    </g>
</svg>