<?xml version="1.0" encoding="UTF-8"?>
<svg width="19px" height="25px" viewBox="0 0 19 25" version="1.1" xmlns="http://www.w3.org/2000/svg" xmlns:xlink="http://www.w3.org/1999/xlink">
    <!-- Generator: Sketch 42 (36781) - http://www.bohemiancoding.com/sketch -->
    <title>Page 1</title>
    <desc>Created with Sketch.</desc>
    <defs></defs>
    <g id="Wireframe" stroke="none" stroke-width="1" fill="none" fill-rule="evenodd">
        <g id="Mobile-Portrait" transform="translate(-150.000000, -2468.000000)" fill="#BDCCD3">
            <g id="Group-5" transform="translate(25.000000, 2468.000000)">
                <path d="M136.842973,-2.27373675e-13 L136.193168,0.689683094 L136.193168,1.99570147 L137.655496,2.7793837 L135.433698,1.8326272 L134.892847,5.52173744 L140.256139,8.26409118 L134.079968,5.52173744 L129.236876,9.53770834 L125.40107,17.6013392 L127.026472,21.4866371 L134.697728,24.882 L140.418501,22.7922994 L143.994029,14.9572573 L141.816382,9.21120374 L141.458901,9.11328797 L139.280898,3.43239289 L135.900489,5.13007435 L138.728653,3.39963561 L137.623095,0.853469477 L136.777815,1.40820683 L137.395574,0.853469477 L136.842973,-2.27373675e-13 Z M131.089442,15.544752 L135.900489,11.4312213 L141.198979,9.47219378 L136.290372,12.0514733 L140.158579,21.9762159 L137.753056,17.1445176 L127.741435,20.9970582 L132.357363,18.6136103 L131.284562,16.0019296 L126.01883,17.3731065 L131.089442,15.544752 Z" id="Page-1"></path>
            </g>
        </g>
    </g>
</svg>