<?xml version="1.0" encoding="UTF-8"?>
<svg width="251px" height="46px" viewBox="0 0 251 46" version="1.1" xmlns="http://www.w3.org/2000/svg" xmlns:xlink="http://www.w3.org/1999/xlink">
    <!-- Generator: Sketch 42 (36781) - http://www.bohemiancoding.com/sketch -->
    <title>CONTUR</title>
    <desc>Created with Sketch.</desc>
    <defs></defs>
    <g id="Wireframe" stroke="none" stroke-width="1" fill="none" fill-rule="evenodd">
        <g id="Desktop-HD" transform="translate(-410.000000, -447.000000)" fill="#4A4A4A">
            <path d="M433.161,492.868 C438.369,492.868 443.143,491.194 446.925,488.156 L445.499,486.544 C442.027,489.21 437.749,490.76 433.161,490.76 C421.195,490.76 412.639,481.522 412.639,470.3 C412.639,459.078 421.195,449.84 433.161,449.84 C437.749,449.84 442.027,451.39 445.499,454.056 L446.925,452.444 C443.143,449.406 438.369,447.732 433.161,447.732 C419.955,447.732 410.407,457.776 410.407,470.3 C410.407,482.824 419.955,492.868 433.161,492.868 Z M477.119,490.76 C489.085,490.76 497.641,481.522 497.641,470.3 C497.641,459.078 489.085,449.84 477.119,449.84 C465.153,449.84 456.597,459.078 456.597,470.3 C456.597,481.522 465.153,490.76 477.119,490.76 Z M477.119,447.732 C490.325,447.732 499.873,457.776 499.873,470.3 C499.873,482.824 490.325,492.868 477.119,492.868 C463.913,492.868 454.365,482.824 454.365,470.3 C454.365,457.776 463.913,447.732 477.119,447.732 Z M545.505,477.492 L512.459,450.336 L513.885,448.6 L543.273,472.718 L543.273,448.6 L545.505,448.6 L545.505,477.492 Z M510.413,463.108 L543.459,490.264 L542.033,492 L512.645,467.882 L512.645,492 L510.413,492 L510.413,463.108 Z M554.185,450.832 L566.957,450.832 L566.957,492 L569.189,492 L569.189,450.832 L581.961,450.832 L581.961,448.6 L554.185,448.6 L554.185,450.832 Z M616.805,478.98 C616.805,485.366 611.535,490.636 604.529,490.636 C597.523,490.636 592.253,485.366 592.253,478.98 L592.253,448.6 L590.021,448.6 L590.021,478.98 C590.021,486.606 596.283,492.868 604.529,492.868 C612.775,492.868 619.037,486.606 619.037,478.98 L619.037,448.6 L616.805,448.6 L616.805,478.98 Z M652.393,476.066 L630.817,476.066 L630.817,492 L633.049,492 L633.049,478.298 L651.029,478.298 L658.531,492 L660.453,490.884 L652.393,476.066 Z M630.817,448.6 L650.161,448.6 C654.563,448.6 658.159,452.196 658.159,456.598 C658.159,460.876 654.563,464.534 650.161,464.534 L630.817,464.534 L630.817,448.6 Z M650.161,450.832 L633.049,450.832 L633.049,462.302 L650.161,462.302 C653.323,462.302 655.927,459.698 655.927,456.598 C655.927,453.436 653.323,450.832 650.161,450.832 Z" id="CONTUR"></path>
        </g>
    </g>
</svg>