<?xml version="1.0" encoding="UTF-8"?>
<svg width="11px" height="15px" viewBox="0 0 11 15" version="1.1" xmlns="http://www.w3.org/2000/svg" xmlns:xlink="http://www.w3.org/1999/xlink">
    <!-- Generator: Sketch 42 (36781) - http://www.bohemiancoding.com/sketch -->
    <title>Group</title>
    <desc>Created with Sketch.</desc>
    <defs></defs>
    <g id="Symbols" stroke="none" stroke-width="1" fill="none" fill-rule="evenodd">
        <g id="Github-repo-forked" transform="translate(-29.000000, -167.000000)" fill="#BDCCD3">
            <g id="Github-repo-member">
                <g id="Group" transform="translate(29.000000, 167.000000)">
                    <rect id="Rectangle-path" x="1.73088235" y="3.65" width="0.630882353" height="5.81666667"></rect>
                    <path d="M2.03823529,3.96666667 C1.00294118,3.96666667 0.145588235,3.1 0.145588235,2.01666667 C0.145588235,0.933333333 1.00294118,0.0833333333 2.03823529,0.0833333333 C3.07352941,0.0833333333 3.93088235,0.95 3.93088235,2.03333333 C3.93088235,3.11666667 3.07352941,3.96666667 2.03823529,3.96666667 L2.03823529,3.96666667 Z M2.03823529,0.733333333 C1.34264706,0.733333333 0.776470588,1.31666667 0.776470588,2.03333333 C0.776470588,2.75 1.34264706,3.33333333 2.03823529,3.33333333 C2.73382353,3.33333333 3.3,2.75 3.3,2.03333333 C3.3,1.31666667 2.73382353,0.733333333 2.03823529,0.733333333 L2.03823529,0.733333333 Z" id="Shape"></path>
                    <path d="M8.96176471,3.96666667 C7.92647059,3.96666667 7.06911765,3.1 7.06911765,2.01666667 C7.06911765,0.933333333 7.92647059,0.0833333333 8.96176471,0.0833333333 C9.99705882,0.0833333333 10.8544118,0.95 10.8544118,2.03333333 C10.8544118,3.11666667 9.99705882,3.96666667 8.96176471,3.96666667 L8.96176471,3.96666667 Z M8.96176471,0.733333333 C8.26617647,0.733333333 7.7,1.31666667 7.7,2.03333333 C7.7,2.75 8.26617647,3.33333333 8.96176471,3.33333333 C9.65735294,3.33333333 10.2235294,2.75 10.2235294,2.03333333 C10.2235294,1.31666667 9.65735294,0.733333333 8.96176471,0.733333333 L8.96176471,0.733333333 Z" id="Shape"></path>
                    <path d="M2.03823529,14.9833333 C1.00294118,14.9833333 0.145588235,14.1166667 0.145588235,13.0333333 C0.145588235,11.95 0.986764706,11.0833333 2.03823529,11.0833333 C3.08970588,11.0833333 3.93088235,11.95 3.93088235,13.0333333 C3.93088235,14.1166667 3.07352941,14.9833333 2.03823529,14.9833333 L2.03823529,14.9833333 Z M2.03823529,11.7333333 C1.34264706,11.7333333 0.776470588,12.3166667 0.776470588,13.0333333 C0.776470588,13.75 1.34264706,14.3333333 2.03823529,14.3333333 C2.73382353,14.3333333 3.3,13.75 3.3,13.0333333 C3.3,12.3166667 2.73382353,11.7333333 2.03823529,11.7333333 L2.03823529,11.7333333 Z" id="Shape"></path>
                    <path d="M2.34558824,11.4 L1.71470588,11.4 L1.71470588,9.46666667 C1.71470588,7.85 2.97647059,6.55 4.54558824,6.55 L6.43823529,6.55 C7.65147059,6.55 8.63823529,5.53333333 8.63823529,4.28333333 L8.63823529,3.65 L9.26911765,3.65 L9.26911765,4.28333333 C9.26911765,5.9 8.00735294,7.2 6.43823529,7.2 L4.56176471,7.2 C3.34852941,7.2 2.36176471,8.21666667 2.36176471,9.46666667 L2.34558824,11.4 L2.34558824,11.4 L2.34558824,11.4 Z" id="Shape"></path>
                </g>
            </g>
        </g>
    </g>
</svg>