<?xml version="1.0" encoding="UTF-8"?>
<svg width="16px" height="16px" viewBox="0 0 16 16" version="1.1" xmlns="http://www.w3.org/2000/svg" xmlns:xlink="http://www.w3.org/1999/xlink">
    <!-- Generator: Sketch 42 (36781) - http://www.bohemiancoding.com/sketch -->
    <title>Github</title>
    <desc>Created with Sketch.</desc>
    <defs></defs>
    <g id="Wireframe" stroke="none" stroke-width="1" fill-rule="evenodd">
        <g id="Desktop-HD" transform="translate(-268.000000, -609.000000)">
            <g id="Github" transform="translate(268.000000, 609.000000)">
                <path d="M8.01441322,0.058983331 C3.60489256,0.058983331 0.0292231405,3.63435184 0.0292231405,8.0451412 C0.0292231405,11.5736933 2.31722314,14.5672958 5.48998347,15.623309 C5.88905785,15.6972365 6.03557025,15.450062 6.03557025,15.2391238 C6.03557025,15.0486844 6.02816529,14.4195729 6.02472727,13.7522414 C3.80323967,14.2353492 3.33447934,12.8099628 3.33447934,12.8099628 C2.97123967,11.8868604 2.44786777,11.6414052 2.44786777,11.6414052 C1.7233719,11.1457336 2.50247934,11.1559168 2.50247934,11.1559168 C3.30433058,11.2121229 3.72654545,11.9789062 3.72654545,11.9789062 C4.4387438,13.1998347 5.59457851,12.8468604 6.05024793,12.6427993 C6.12191736,12.1267613 6.3288595,11.7741838 6.55722314,11.5748836 C4.78360331,11.3729384 2.9191405,10.6881499 2.9191405,7.6280259 C2.9191405,6.75610415 3.23107438,6.04367544 3.7418843,5.48439179 C3.65897521,5.28310787 3.38565289,4.47096294 3.81923967,3.37091059 C3.81923967,3.37091059 4.48978512,3.15626946 6.01573554,4.18953575 C6.65269421,4.01258576 7.33580165,3.92384626 8.01441322,3.92080452 C8.69302479,3.92384626 9.37666116,4.01258576 10.0148099,4.18953575 C11.5389091,3.15626946 12.2085289,3.37091059 12.2085289,3.37091059 C12.6431736,4.47096294 12.369719,5.28310787 12.2868099,5.48439179 C12.7988099,6.04367544 13.1086281,6.75610415 13.1086281,7.6280259 C13.1086281,10.6954236 11.240595,11.3708224 9.46247934,11.5685356 C9.74889256,11.8163714 10.0040992,12.3023888 10.0040992,13.0474831 C10.0040992,14.1159278 9.99484298,14.9759471 9.99484298,15.2391238 C9.99484298,15.451649 10.1385785,15.700675 10.5433388,15.622251 C13.7143802,14.5650475 15.9994711,11.5725031 15.9994711,8.0451412 C15.9994711,3.63435184 12.4243306,0.058983331 8.01441322,0.058983331" id="Fill-51"></path>
                <path d="M3.24074195,11.6438937 C3.20776674,11.7185321 3.09074195,11.7406012 2.98413038,11.6895198 C2.87553534,11.6406701 2.8145436,11.5392512 2.84975021,11.4646128 C2.88198162,11.3879907 2.99925434,11.3669134 3.10760145,11.4177469 C3.21644443,11.4668445 3.2784279,11.5692553 3.24074195,11.6438937" id="Fill-52"></path>
                <path d="M3.56075733,12.0799634 C3.48935237,12.1461709 3.34976559,12.1154229 3.25505485,12.0107803 C3.15712096,11.9063858 3.13877385,11.7667798 3.21117055,11.6995804 C3.28480691,11.633373 3.42017881,11.664369 3.51836063,11.7687635 C3.61629452,11.8743979 3.63538542,12.0130121 3.56075733,12.0799634" id="Fill-53"></path>
                <path d="M3.87997613,12.5491833 C3.7882406,12.6084307 3.6382406,12.5528719 3.54551332,12.4290748 C3.45377779,12.3052777 3.45377779,12.1568134 3.5474968,12.0973355 C3.640472,12.0378576 3.7882406,12.0913416 3.88220754,12.2142165 C3.97369514,12.3398579 3.97369514,12.4885527 3.87997613,12.5491833" id="Fill-54"></path>
                <path d="M4.30752259,12.9772671 C4.23431351,13.0597373 4.07838482,13.0375946 3.96425829,12.9250736 C3.84747765,12.815038 3.81496485,12.6589094 3.8883951,12.5764392 C3.96248888,12.4937431 4.11930228,12.5170155 4.23431351,12.6286327 C4.35020945,12.7384424 4.38559752,12.8957007 4.30752259,12.9772671" id="Fill-55"></path>
                <path d="M4.87911168,13.2011689 C4.85051014,13.3184578 4.71749336,13.3717709 4.58349708,13.3219293 C4.44969671,13.2705999 4.36212896,13.1332256 4.3891633,13.0146969 C4.41698124,12.8966641 4.55058572,12.8411193 4.6855615,12.8944324 C4.81916598,12.9455138 4.90692963,13.0818963 4.87911168,13.2011689" id="Fill-56"></path>
                <path d="M5.5285579,13.1984047 C5.53183297,13.3218928 5.42009529,13.4243036 5.28177174,13.4262873 C5.14267759,13.4305028 5.03016931,13.3305716 5.0286281,13.2090673 C5.0286281,13.0843394 5.13786132,12.9829205 5.27695546,12.9799448 C5.41527901,12.9764733 5.5285579,13.0756605 5.5285579,13.1984047" id="Fill-57"></path>
                <path d="M6.13757997,13.0727646 C6.15421866,13.193277 6.0576756,13.3170131 5.91972931,13.3497449 C5.7841047,13.3817327 5.65854069,13.3073423 5.64132159,13.1878217 C5.62448943,13.0643337 5.72277374,12.9405976 5.85820488,12.9086097 C5.99634464,12.8778617 6.11997393,12.9502684 6.13757997,13.0727646" id="Fill-58"></path>
            </g>
        </g>
    </g>
</svg>